<?xml version="1.0" standalone="no"?>
<!DOCTYPE svg PUBLIC "-//W3C//DTD SVG 20010904//EN"
 "http://www.w3.org/TR/2001/REC-SVG-20010904/DTD/svg10.dtd">
<svg version="1.0" xmlns="http://www.w3.org/2000/svg"
 width="70.000000pt" height="70.000000pt" viewBox="0 0 70.000000 70.000000"
 preserveAspectRatio="xMidYMid meet">
<metadata>
Created by potrace 1.11, written by Peter Selinger 2001-2013
</metadata>
<g transform="translate(0.000000,70.000000) scale(0.100000,-0.100000)"
fill="#000000" stroke="none">
<path d="M315 692 c-2 -2 -1 -11 2 -20 4 -10 2 -13 -5 -8 -7 4 -12 2 -12 -3 0
-6 -6 -10 -12 -8 -7 1 -12 -4 -10 -11 1 -8 -2 -11 -8 -7 -5 3 -10 1 -10 -5 0
-6 -4 -9 -9 -5 -5 3 -12 1 -16 -5 -3 -5 -15 -10 -26 -10 -11 0 -18 -3 -16 -7
3 -5 -1 -14 -9 -21 -11 -10 -14 -10 -14 0 -1 9 -5 7 -14 -4 -7 -10 -16 -15
-19 -11 -4 3 -7 1 -7 -6 0 -7 -5 -9 -12 -5 -8 5 -9 2 -5 -10 6 -14 3 -17 -9
-12 -15 6 -15 4 -3 -11 9 -11 10 -14 1 -9 -7 4 -12 2 -12 -6 0 -7 -9 -24 -20
-38 -11 -14 -19 -18 -18 -10 2 8 9 20 17 26 11 9 12 12 1 19 -9 6 -11 4 -5 -5
6 -9 4 -12 -6 -8 -11 4 -14 -5 -14 -42 0 -27 3 -46 8 -43 4 2 5 8 2 13 -3 4 3
14 13 21 15 12 16 12 5 -2 -10 -12 -10 -18 0 -29 9 -10 9 -11 0 -6 -15 8 -18
-10 -3 -19 10 -6 2 -35 -10 -35 -5 0 -7 9 -5 20 2 11 0 20 -4 20 -9 0 -8 -177
1 -185 3 -3 8 3 11 15 3 11 2 18 -1 16 -4 -2 -7 19 -7 47 0 33 4 51 13 53 7 1
9 0 4 -2 -13 -7 -3 -106 11 -120 4 -4 7 -16 7 -26 0 -11 5 -16 10 -13 6 4 7
12 3 18 -4 7 0 6 10 -2 9 -7 17 -21 17 -29 0 -13 3 -12 16 4 8 10 13 13 9 6
-7 -13 19 -45 29 -35 3 4 6 1 6 -6 0 -8 8 -10 23 -7 12 3 16 3 10 0 -10 -4 -9
-9 2 -20 8 -9 21 -12 27 -8 7 4 10 4 6 -1 -4 -4 0 -14 10 -21 13 -9 19 -9 25
-1 5 7 7 3 4 -11 -3 -12 -1 -19 4 -16 6 3 15 1 22 -4 14 -11 48 -12 41 -1 -2
5 -11 6 -18 3 -7 -3 -19 3 -27 13 -13 16 -12 17 4 4 9 -8 20 -11 24 -7 3 3 17
-1 29 -9 21 -13 23 -13 18 0 -5 11 -2 13 10 9 9 -3 16 -1 16 5 0 6 7 11 15 11
9 0 18 6 21 14 3 8 14 13 24 11 12 -2 17 1 14 10 -3 7 0 16 7 21 8 5 10 3 4
-5 -12 -20 36 10 64 39 13 14 20 19 17 13 -4 -7 -2 -13 3 -13 6 0 11 5 11 10
0 6 5 9 11 8 6 -2 14 3 17 11 3 8 0 11 -7 7 -16 -10 -14 -1 3 13 11 9 16 9 22
0 5 -8 3 -9 -6 -4 -9 6 -11 4 -6 -4 5 -7 11 -10 14 -6 9 9 9 266 -1 272 -15 9
-20 -6 -7 -22 10 -12 10 -15 -1 -15 -9 0 -10 -3 -4 -8 14 -10 17 -32 5 -32 -5
0 -10 6 -11 13 0 6 -2 24 -4 39 -2 18 2 32 13 39 15 9 15 10 1 6 -9 -3 -22 0
-28 6 -9 9 -11 8 -6 -5 4 -10 3 -18 -2 -18 -5 0 -10 6 -11 13 0 6 -3 22 -6 35
-3 16 -1 20 7 16 7 -4 3 2 -8 13 -11 11 -22 19 -24 17 -3 -2 -16 6 -30 18 -18
17 -21 18 -11 4 14 -18 14 -18 -7 -6 -12 8 -19 18 -17 22 3 4 -4 8 -15 8 -12
0 -21 5 -21 10 0 6 -3 9 -7 8 -5 -1 -20 5 -35 12 -24 11 -32 25 -30 50 1 6
-67 8 -73 2z m60 -13 c3 -3 -6 -5 -19 -5 -14 1 -28 4 -31 7 -3 3 6 5 19 5 14
-1 28 -4 31 -7z m-234 -212 c-10 -9 -11 -8 -5 6 3 10 9 15 12 12 3 -3 0 -11
-7 -18z m37 -14 c-12 -14 -8 -16 16 -7 9 3 13 11 9 17 -3 6 -1 7 5 3 16 -9 5
-33 -16 -33 -30 0 -43 16 -29 37 8 14 13 16 19 7 4 -6 2 -17 -4 -24z m376 18
c-2 -2 2 -11 9 -20 11 -14 10 -14 -5 -2 -12 9 -18 10 -18 2 0 -6 -7 -11 -16
-11 -9 0 -12 -5 -8 -12 5 -9 2 -9 -9 1 -17 13 -23 6 -18 -21 0 -5 -3 -8 -9 -8
-5 0 -11 8 -11 18 -1 16 -2 16 -6 0 -2 -10 -9 -18 -14 -18 -6 0 -7 -6 -3 -12
4 -7 4 -10 -1 -6 -4 4 -15 2 -23 -4 -22 -19 -41 -18 -36 0 5 14 4 14 -6 -1 -6
-9 -8 -22 -5 -27 7 -11 -6 -13 -29 -4 -9 3 -13 11 -9 17 3 6 1 7 -6 3 -6 -4
-9 -12 -6 -17 4 -5 2 -9 -3 -9 -6 0 -12 7 -16 15 -3 8 0 15 6 15 7 0 6 6 -3
18 -11 14 -11 15 0 5 7 -6 20 -9 27 -6 9 3 14 -2 15 -13 1 -17 2 -17 6 -1 5
17 10 19 51 20 18 0 21 4 16 21 -6 19 -5 20 11 6 17 -14 18 -13 11 5 -4 11 -4
16 0 12 4 -4 16 1 27 10 10 10 22 18 26 18 3 0 5 2 4 5 -1 3 11 5 27 5 16 0
26 -2 24 -4z m-296 -37 c6 3 13 2 17 -4 4 -6 11 -8 16 -5 5 3 6 -1 3 -10 -4
-10 -13 -13 -26 -9 -15 4 -18 3 -13 -6 5 -9 4 -11 -4 -6 -6 4 -9 13 -5 19 3 7
-2 3 -11 -8 -15 -19 -15 -19 -11 5 2 14 5 30 5 35 1 6 5 4 10 -4 5 -7 13 -11
19 -7z m32 -54 c0 -5 -2 -10 -4 -10 -3 0 -8 5 -11 10 -3 6 -1 10 4 10 6 0 11
-4 11 -10z m357 -37 c0 -7 -6 -13 -12 -13 -6 0 -12 6 -12 13 0 8 6 14 12 14 6
0 12 -6 12 -14z m-293 -12 c3 -5 -2 -15 -11 -22 -12 -10 -14 -10 -9 -1 4 7 2
12 -6 12 -9 0 -9 3 2 10 18 12 18 12 24 1z m293 -28 c0 -7 -4 -13 -8 -13 -4 0
-9 6 -12 13 -3 8 0 14 7 14 7 0 13 -6 13 -14z m-273 -1 c-6 -4 -10 -15 -8 -25
1 -9 -1 -15 -6 -12 -7 4 -7 22 -1 43 1 1 7 2 14 2 8 0 9 -3 1 -8z m267 -35
c-7 -7 -7 -15 0 -24 8 -9 8 -13 0 -13 -6 0 -11 3 -12 8 0 4 -2 14 -4 23 -1 9
4 16 11 16 10 0 11 -4 5 -10z m-296 -7 c3 -5 1 -10 -4 -10 -6 0 -11 5 -11 10
0 6 2 10 4 10 3 0 8 -4 11 -10z m20 -31 c11 -16 1 -19 -13 -3 -7 8 -8 14 -3
14 5 0 13 -5 16 -11z m-1 -44 c3 -8 1 -15 -4 -15 -6 0 -10 7 -10 15 0 8 2 15
4 15 2 0 6 -7 10 -15z m-16 -46 c-3 -8 -7 -3 -11 10 -4 17 -3 21 5 13 5 -5 8
-16 6 -23z m-21 -4 c0 -8 -4 -12 -9 -9 -5 3 -6 10 -3 15 9 13 12 11 12 -6z
m40 -19 c0 -8 -6 -12 -15 -9 -11 5 -11 7 0 14 7 5 13 9 14 9 0 0 1 -6 1 -14z
m-17 -36 c0 -5 -5 -10 -11 -10 -5 0 -7 5 -4 10 3 6 8 10 11 10 2 0 4 -4 4 -10z"/>
<path d="M505 450 c-3 -6 1 -7 9 -4 18 7 21 14 7 14 -6 0 -13 -4 -16 -10z"/>
</g>
</svg>
