<?xml version="1.0" encoding="iso-8859-1"?>
<!-- Generator: Adobe Illustrator 18.0.0, SVG Export Plug-In . SVG Version: 6.00 Build 0)  -->
<!DOCTYPE svg PUBLIC "-//W3C//DTD SVG 1.1//EN" "http://www.w3.org/Graphics/SVG/1.1/DTD/svg11.dtd">
<svg xmlns="http://www.w3.org/2000/svg" xmlns:xlink="http://www.w3.org/1999/xlink" version="1.1" id="Capa_1" x="0px" y="0px" viewBox="0 0 457.245 457.245" style="enable-background:new 0 0 457.245 457.245;" xml:space="preserve" width="512px" height="512px">
<path d="M454.654,133.6l-88.463-76.605c-2.415-2.092-5.892-2.423-8.66-0.825l-18.36,10.6l-7.095-4.095l10.862-6.271  c2.542-1.468,3.995-4.284,3.716-7.207c-0.279-2.923-2.237-5.414-5.011-6.375L231.069,4.512c-2.201-0.763-4.553-0.443-6.425,0.726  c0,0-221.388,127.83-221.62,128.003c-0.985,0.732-1.802,1.714-2.344,2.901c-0.492,1.077-0.708,2.214-0.676,3.329l0.021,178.427  c0,2.678,1.429,5.153,3.748,6.493l221.094,127.75c1.161,0.671,2.457,1.006,3.752,1.006c1.294,0,2.59-0.335,3.75-1.005  l221.126-127.653c2.321-1.34,3.75-3.816,3.75-6.495V139.359C457.271,137.163,456.331,135.052,454.654,133.6z M324.17,75.43  L136.421,183.827c-2.101,1.213-3.486,3.368-3.716,5.783c-0.23,2.415,0.722,4.793,2.557,6.381l28.993,25.107l-84.872-49l36.24,12.555  c2.056,0.713,4.32,0.496,6.205-0.592L317.075,71.336L324.17,75.43z M229.404,19.81l91.818,31.811L117.295,169.358l-91.827-31.813  L229.404,19.81z M221.115,432.649L15.024,313.568l-0.02-161.317l206.128,119.008L221.115,432.649z M229.507,257.764l-76.462-66.214  L360.408,71.829l76.462,66.213L229.507,257.764z M442.244,313.663L236.115,432.659l0.018-161.4L442.244,152.26V313.663z" fill="#444444"/>
<g>
</g>
<g>
</g>
<g>
</g>
<g>
</g>
<g>
</g>
<g>
</g>
<g>
</g>
<g>
</g>
<g>
</g>
<g>
</g>
<g>
</g>
<g>
</g>
<g>
</g>
<g>
</g>
<g>
</g>
</svg>
