<?xml version="1.0" encoding="utf-8"?>
<!-- Generator: Adobe Illustrator 19.0.1, SVG Export Plug-In . SVG Version: 6.00 Build 0)  -->
<svg version="1.1" id="Layer_1" xmlns="http://www.w3.org/2000/svg" xmlns:xlink="http://www.w3.org/1999/xlink" x="0px" y="0px"
	 viewBox="0 0 292.5 76.5" style="enable-background:new 0 0 292.5 76.5;" xml:space="preserve">
<style type="text/css">
	.st0{fill:#20A4B6;}
</style>
<g id="XMLID_5_">
	<path id="XMLID_6_" class="st0" d="M45.2,30.3c2.2,0,4.1-0.2,4.8-0.2c0.3,0,0.3,0.3,0.2,0.5c-3.1,4.9-8.3,14.3-11.3,19.9
		c-0.1,0.3-0.1,0.4,0.2,0.5c1,0.1,3.2,0,5.1-0.1c2.3-0.1,3.5-0.3,4.4-0.8c1-0.6,1.4-1.6,1.7-3.5c0.1-0.4,0.2-0.5,0.4-0.5
		c0.2,0,0.4,0.2,0.4,0.5c0,0.7-0.5,3.2-1,4.2c-0.4,0.9-0.8,1.3-2.4,1.3c-1.3,0-3.1-0.1-4.8-0.1c-1.8-0.1-3.5-0.1-4.8-0.1
		c-2.1,0-3.8,0.1-4.2,0.1c-0.2-0.1-0.3-0.1-0.3-0.4s0.5-0.9,1-1.5c3.1-4.9,8.2-13.9,10.7-18.6c0.1-0.3,0.1-0.3-0.1-0.4
		c-1.6,0-3.6,0-5.4,0.1c-2.4,0.1-4.1,0.3-4.1,2.1v1.7c0,0.5-0.2,0.6-0.4,0.6c-0.2,0-0.4-0.3-0.4-0.8c0.1-1.4-0.1-3.5-0.1-4.4
		c0-0.3,0.1-0.5,0.7-0.5c2.2,0,4.4,0.3,7.1,0.3H45.2z"/>
	<path id="XMLID_8_" class="st0" d="M57.8,39.6c0-1.7,0-3.3-0.1-4.6c0-1.3,0-2.3-0.2-3.1c-0.1-0.8-0.5-1-2.2-1c-0.5,0-0.8,0-0.8-0.4
		s0.3-0.4,0.8-0.4c1.3,0,3.7,0.3,4.8,0.3c1.3,0,3.3-0.3,4.5-0.3c0.6,0,0.9,0.1,0.9,0.4c0,0.4-0.1,0.4-0.8,0.4
		c-1.2,0-1.7,0.1-1.9,0.8c-0.3,0.8-0.4,2.9-0.4,6.7v5.2c0,4.7,1.9,8,6.2,8c4.6,0,7.2-3.1,7.2-8.4c0-1.5,0-2.9,0-4.4
		c-0.1-3.5-0.3-6.2-0.9-7c-0.5-0.6-1.5-0.8-2.4-0.8c-0.6,0-1-0.1-1-0.3c0-0.4,0.4-0.4,0.9-0.4c1,0,2.4,0.3,4.2,0.3
		c1.5,0,2.8-0.3,3.6-0.3c0.5,0,0.7,0.1,0.7,0.4c0,0.3-0.4,0.4-0.8,0.4c-1.2,0-1.8,0.3-1.9,0.8c-0.3,0.9-0.4,2.1-0.5,4.8
		c0,1.3-0.1,2.9-0.1,6.5c0,7.8-5.5,9.6-9.3,9.6c-6.3,0-10.3-2.2-10.3-8.1V39.6z"/>
	<path id="XMLID_10_" class="st0" d="M87.3,39.7c0-3.6-0.1-6.4-0.2-7.7c-0.1-0.8-0.5-1.1-1.9-1.1c-0.6,0-0.9-0.1-0.9-0.4
		c0-0.3,0.2-0.4,0.6-0.4c0.5,0,1.2,0.1,1.9,0.1c0.7,0.1,1.4,0.1,2,0.1c0.6,0,1.4-0.1,2.3-0.1c0.9-0.1,1.8-0.1,2.8-0.1
		c4.7,0,7.1,1.8,7.1,5.7c0,5.1-4.5,7-7.6,7.1c-0.6,0-0.9-0.1-0.9-0.4s0.2-0.4,0.6-0.4c2.4,0,3.8-1.9,3.8-5.3c0-3.8-1.6-5.9-4.3-5.9
		c-0.7,0-1.1,0.2-1.2,0.6c-0.2,0.9-0.2,2.8-0.2,6.8v3.3c0,3.7,0.1,6.8,0.3,8.3c0.2,1.2,0.8,1.4,1.9,1.4c0.7,0,1,0.1,1,0.3
		c0,0.3-0.2,0.4-0.9,0.4c-0.9,0-3.1-0.2-4.4-0.2c-1.4,0-3.2,0.2-3.9,0.2c-0.6,0-0.9-0.1-0.9-0.3s0.1-0.4,0.8-0.4
		c1.3,0,1.8-0.3,2-1.4c0.1-1.3,0.2-4.5,0.2-6.9V39.7z"/>
	<path id="XMLID_12_" class="st0" d="M113.6,39.7c0-3.6-0.1-6.4-0.2-7.7c-0.1-0.8-0.5-1.1-1.9-1.1c-0.6,0-0.9-0.1-0.9-0.4
		c0-0.3,0.2-0.4,0.6-0.4c0.5,0,1.2,0.1,1.9,0.1c0.7,0.1,1.4,0.1,2,0.1c0.6,0,1.4-0.1,2.3-0.1c0.9-0.1,1.8-0.1,2.8-0.1
		c4.7,0,7.1,1.8,7.1,5.7c0,5.1-4.5,7-7.6,7.1c-0.6,0-0.9-0.1-0.9-0.4s0.2-0.4,0.6-0.4c2.4,0,3.8-1.9,3.8-5.3c0-3.8-1.6-5.9-4.3-5.9
		c-0.7,0-1.1,0.2-1.2,0.6c-0.2,0.9-0.2,2.8-0.2,6.8v3.3c0,3.7,0.1,6.8,0.3,8.3c0.2,1.2,0.8,1.4,1.9,1.4c0.7,0,1,0.1,1,0.3
		c0,0.3-0.2,0.4-0.9,0.4c-0.9,0-3.1-0.2-4.4-0.2c-1.4,0-3.2,0.2-3.9,0.2c-0.6,0-0.9-0.1-0.9-0.3s0.1-0.4,0.8-0.4
		c1.3,0,1.8-0.3,2-1.4c0.1-1.3,0.2-4.5,0.2-6.9V39.7z"/>
	<path id="XMLID_14_" class="st0" d="M136.9,38.5c0-3.3-0.1-5.1-0.2-6.3c-0.1-0.9-0.4-1.4-1.8-1.4c-0.5,0-0.8-0.1-0.8-0.4
		c0-0.3,0.3-0.4,0.7-0.4c1.1,0,2.5,0.2,4.1,0.2c1.4,0,3-0.2,3.9-0.2c0.4,0,0.7,0.1,0.7,0.4c0,0.3-0.3,0.4-0.8,0.4
		c-1.3,0-1.6,0.4-1.7,1.2c-0.1,1.6-0.2,3.8-0.2,5.6v4.7c0,3.1,0,6.4,0.3,7.6c0.2,0.9,0.7,1.2,2.3,1.2c1.5,0,2.7-0.2,3.6-0.5
		c1.4-0.5,1.9-2.1,2.2-3.8c0-0.4,0.2-0.6,0.4-0.6c0.2,0,0.3,0.2,0.3,0.6c0,0.5-0.4,2.6-0.9,3.9c-0.4,1.1-0.9,1.4-2.7,1.4
		c-1.1,0-2.6-0.1-4.1-0.1c-1.4,0-2.7-0.1-3.4-0.1c-0.8,0-1.6,0-2.3,0.1c-0.7,0.1-1.3,0.1-1.7,0.1c-0.5,0-0.8-0.1-0.8-0.3
		c0-0.3,0.3-0.4,0.8-0.4c1.3,0,1.7-0.3,1.9-1.4c0.2-1.1,0.3-4.4,0.3-7.3V38.5z"/>
	<path id="XMLID_16_" class="st0" d="M153.1,30.5c0-0.2,0.2-0.3,0.6-0.3c0.6,0,2.9,0,3.8,0c1.7,0,2.4,0.3,3,1.2
		c1.5,2.4,3.1,6.8,4,10c0,0.2,0.3,0.3,0.4,0c1-2.8,2.4-6.9,3.9-9.5c0.6-1.2,1.2-1.7,2-1.7c0.8,0,1.6,0.1,2.4,0
		c0.6,0,0.9,0.1,0.9,0.4c0,0.3-0.3,0.4-0.7,0.4c-0.7,0-1.3,0.1-2.1,0.9c-2.1,2.1-4.4,7.2-5.3,9.4c-0.4,1-0.5,1.9-0.5,3.2v1.9
		c0,1.1,0.1,2.7,0.2,3.7c0.1,0.9,0.5,1.3,1.9,1.3c0.5,0,0.9,0.1,0.9,0.4c0,0.3-0.2,0.4-0.7,0.4c-1.6,0-2.8-0.2-4.2-0.2
		c-1.4,0-3.1,0.2-4.5,0.2c-0.5,0-0.8-0.1-0.8-0.3c0-0.3,0.3-0.4,0.8-0.4c1.4,0,2.2-0.4,2.3-1.3c0.2-1.2,0.2-2.3,0.2-3.7
		c0-0.9,0-2.3-0.1-3.1c-0.2-2.6-3.2-8.6-5.3-11c-0.6-0.7-0.9-1-1.3-1.2c-0.4-0.2-0.9-0.2-1.3-0.2C153.2,30.9,153.1,30.7,153.1,30.5
		L153.1,30.5z"/>
	<path id="XMLID_18_" class="st0" d="M181.3,39.7c0-4.2,0-6.4-0.2-7.6c-0.1-1-0.6-1.3-1.9-1.3c-0.5,0-0.8-0.1-0.8-0.3
		s0.2-0.4,0.6-0.4c0.4,0,1,0.1,1.7,0.1c0.7,0.1,1.5,0.1,2.4,0.1c0.6,0,1.3-0.1,2.2-0.1c0.9-0.1,1.8-0.1,2.9-0.1
		c4.5,0,6.3,1.4,6.3,4.5c0,2.8-2.3,4.5-5.4,5.3c-0.4,0.1-0.3,0.4,0,0.4c3.9,0.3,7,1.9,7,5.7c0,3.5-2.6,6.2-8.7,6.2
		c-0.9,0-1.5-0.1-2.2-0.1c-0.7,0-1.3-0.1-2.2-0.1c-1.3,0-2.8,0.2-3.7,0.2c-0.6,0-0.9-0.1-0.9-0.4c0-0.3,0.3-0.4,0.7-0.4
		c1.4,0,1.9-0.4,2.1-1.6c0.1-1,0.3-4.8,0.3-8.3V39.7z M187,30.9c-1,0-1.4,0.2-1.6,0.6c-0.2,0.8-0.3,3.7-0.3,8.1v1.8
		c0,5.3,0.2,7.7,0.4,8.6c0.2,0.8,0.8,1.3,2.2,1.3c2.4,0,3.9-1.9,3.9-5.2c0-3.7-1.9-5.5-4.9-5.5c-0.4,0-0.7-0.1-0.7-0.4
		c0-0.3,0.3-0.4,0.6-0.4c1.8,0,3.7-1.5,3.7-4.8C190.3,32.6,189.3,30.9,187,30.9L187,30.9z"/>
	<path id="XMLID_22_" class="st0" d="M234.9,30.5c0-0.2,0.2-0.4,0.7-0.4c0.9,0,2.6,0.2,3.9,0.2c1.3,0,3.1-0.2,4-0.2
		c0.4,0,0.6,0.1,0.6,0.4c0,0.3-0.2,0.4-0.7,0.4c-0.7,0-1.2,0.1-1.2,0.5c0,0.4,0.2,0.9,0.5,1.6c0.8,1.7,1.5,3.1,2.6,5.1
		c0.1,0.1,0.2,0.1,0.4,0c1.3-1.9,2.1-3.4,2.8-4.8c0.4-0.7,0.5-1.3,0.5-1.7c0-0.5-0.5-0.6-1.4-0.6c-0.4,0-0.6-0.1-0.6-0.4
		c0-0.3,0.2-0.4,0.7-0.4c0.6,0,1.7,0.2,3,0.2c1.1,0,2.2-0.2,2.8-0.2c0.4,0,0.7,0.1,0.7,0.3c0,0.3-0.2,0.4-0.6,0.4
		c-0.5,0-1.3,0.1-1.8,0.5c-0.5,0.4-1,1-1.5,1.8c-1.3,1.7-2.6,3.6-4,5.9c-0.1,0.1-0.1,0.4,0,0.5c1.4,2.8,3.6,6.6,4.7,8.6
		c0.6,1.2,1.4,2.1,1.8,2.5c0.4,0.4,0.9,0.5,1.5,0.5c0.5,0,0.8,0.2,0.8,0.4c0,0.3-0.3,0.4-0.7,0.4c-1,0-2.6-0.2-4.1-0.2
		c-1.4,0-3.5,0.2-4.3,0.2c-0.5,0-0.8-0.1-0.8-0.4c0-0.2,0.3-0.4,0.8-0.4c0.7,0,1.2-0.2,1.2-0.5c0.1-0.4-0.2-1.2-0.6-2
		c-1-1.9-2.2-4.4-3.1-6.1c-0.1-0.1-0.2-0.1-0.3,0c-1.3,2.1-2.3,4-3,5.4c-0.4,1-0.7,1.7-0.8,2.2c-0.1,0.6,0.3,1.1,1.2,1.1
		c0.5,0,0.6,0.2,0.6,0.4c0,0.2-0.2,0.4-0.6,0.4c-0.8,0-1.7-0.2-3.1-0.2c-1.1,0-2.3,0.2-2.8,0.2c-0.5,0-0.8-0.1-0.8-0.3
		c0-0.2,0.2-0.5,0.7-0.4c0.6,0,1.2-0.1,1.6-0.5c0.5-0.4,1.1-1.1,1.8-2.1c1-1.4,3.1-4.8,4.5-7.2c0.1-0.3,0.1-0.4,0-0.6
		c-1.2-2.3-2.5-4.8-3.7-7c-0.9-1.7-1.3-2.2-1.8-2.5c-0.4-0.4-0.9-0.6-1.5-0.6C235.2,30.9,234.9,30.8,234.9,30.5L234.9,30.5z"/>
</g>
<g id="XMLID_1_">
	<polygon id="XMLID_2_" class="st0" points="227.2,34.5 215.3,40.8 203.5,34.3 215.3,27.5 	"/>
	<polygon id="XMLID_4_" class="st0" points="214.9,41.9 214.9,55.7 203.5,48.1 203.5,35.4 	"/>
	<polygon id="XMLID_3_" class="st0" points="215.9,41.9 215.9,55.7 227.2,49.1 227.2,35.8 	"/>
</g>
</svg>
